<?xml version="1.0" standalone="no"?>
<!DOCTYPE svg PUBLIC "-//W3C//DTD SVG 20010904//EN"
 "http://www.w3.org/TR/2001/REC-SVG-20010904/DTD/svg10.dtd">
<svg version="1.0" xmlns="http://www.w3.org/2000/svg"
 width="640.000000pt" height="640.000000pt" viewBox="0 0 640.000000 640.000000"
 preserveAspectRatio="xMidYMid meet">
<metadata>
Created by potrace 1.11, written by Peter Selinger 2001-2013
</metadata>
<g transform="translate(0.000000,640.000000) scale(0.100000,-0.100000)"
fill="#000000" stroke="none">
<path d="M1041 6373 c-3 -29 -4 -58 -2 -105 1 -16 1 -40 2 -55 0 -16 1 -39 1
-53 0 -14 -1 -37 -1 -52 -1 -16 -1 -40 -2 -55 0 -16 -1 -39 -1 -53 0 -14 1
-37 1 -52 1 -16 1 -40 2 -55 0 -16 1 -39 1 -53 0 -14 -1 -37 -1 -52 -1 -16 -1
-40 -2 -55 0 -16 -1 -39 -1 -53 0 -14 1 -37 1 -52 1 -16 1 -40 2 -55 0 -16 1
-39 1 -53 0 -14 -1 -37 -1 -52 -1 -16 -1 -40 -2 -55 -1 -37 -1 -72 0 -103 1
-14 1 -33 1 -42 0 -10 0 -40 0 -68 0 -27 -1 -62 -1 -77 -1 -16 -1 -44 0 -63 1
-19 2 -46 2 -60 1 -14 1 -35 0 -47 0 -13 0 -45 0 -73 -1 -27 -1 -57 -1 -65 0
-8 0 -22 0 -30 0 -8 0 -37 0 -65 0 -27 -1 -62 -1 -77 -1 -16 -1 -41 0 -58 1
-16 1 -39 1 -50 -1 -51 -1 -111 -1 -122 1 -7 1 -19 2 -25 1 -13 0 -174 -1
-213 0 -11 0 -33 1 -50 1 -16 0 -37 0 -45 -1 -8 -1 -26 0 -40 1 -14 1 -35 0
-47 0 -13 0 -45 0 -73 -1 -27 -1 -57 -1 -65 0 -8 0 -22 0 -30 0 -8 0 -37 0
-65 0 -27 -1 -62 -1 -77 -1 -16 -1 -41 0 -58 1 -16 1 -39 1 -50 -1 -51 -1
-111 -1 -122 1 -7 1 -19 2 -25 1 -13 0 -174 -1 -213 0 -11 0 -33 1 -50 1 -16
0 -37 0 -45 -1 -8 -1 -26 0 -40 1 -14 1 -35 0 -47 0 -13 0 -45 0 -73 -1 -27
-1 -57 -1 -65 0 -8 0 -22 0 -30 0 -8 0 -37 0 -65 0 -27 -1 -62 -1 -77 -1 -16
-1 -44 0 -63 1 -19 2 -46 2 -60 1 -14 1 -35 0 -47 0 -13 0 -45 0 -73 -1 -27
-1 -58 -1 -67 0 -10 0 -29 1 -43 1 -31 1 -66 0 -103 -1 -15 -1 -39 -2 -55 0
-15 -1 -38 -1 -52 0 -14 1 -37 1 -52 1 -16 1 -40 2 -55 0 -16 1 -39 1 -53 0
-14 -1 -37 -1 -53 -1 -15 -1 -39 -2 -55 0 -15 -1 -38 -1 -52 0 -14 1 -37 1
-53 1 -15 1 -39 2 -55 0 -15 1 -38 1 -52 0 -14 -1 -37 -1 -53 -1 -15 -1 -39
-2 -55 -1 -36 -1 -71 0 -102 1 -14 1 -33 1 -42 0 -10 0 -40 0 -68 0 -27 -1
-62 -1 -77 -1 -16 -1 -44 0 -63 1 -19 2 -46 2 -60 1 -14 1 -35 0 -47 0 -13 0
-45 0 -73 -1 -27 -1 -57 -1 -65 0 -8 0 -22 0 -30 0 -8 0 -37 0 -65 0 -27 -1
-62 -1 -77 -1 -16 -1 -41 0 -58 1 -16 1 -39 1 -50 -1 -51 -1 -111 -1 -122 1
-7 1 -19 2 -25 1 -13 0 -174 -1 -213 0 -11 0 -33 1 -50 1 -16 0 -37 0 -45 -1
-8 -1 -26 0 -40 1 -14 1 -35 0 -47 -1 -42 -1 -123 1 -138 1 -13 290 -15 2557
-13 l2556 3 2 60 c4 103 5 150 2 155 -1 3 -3 993 -5 2200 -1 1207 -3 2200 -3
2207 -1 6 -126 138 -278 292 -153 155 -278 281 -278 281 1 0 -152 154 -338
343 -186 188 -452 458 -592 600 l-254 257 -1683 0 -1684 0 -3 -27z m4787
-1731 c1 -4 -316 -7 -705 -7 l-708 0 -5 140 c-3 77 -5 344 -5 592 0 249 -3
453 -7 453 -4 0 -3 12 0 28 7 25 8 80 2 147 -7 98 -48 133 713 -630 391 -393
713 -719 715 -723z m-883 -1064 c7 -7 7 -289 1 -296 -8 -7 -2684 -10 -2695 -2
-4 3 -7 71 -7 152 l0 147 75 3 c111 4 2622 0 2626 -4z m-448 -986 c2 -151 2
-152 -20 -153 -12 0 -519 -1 -1127 -1 l-1105 -1 -1 149 c-1 82 0 151 1 154 2
3 509 5 1127 4 l1123 -1 2 -151z m453 -838 c0 -83 -3 -153 -6 -157 -3 -3 -17
-2 -30 3 -14 6 -26 6 -29 -1 -4 -5 -11 -7 -16 -4 -12 8 -107 10 -114 3 -4 -3
-20 -2 -36 2 -16 5 -31 5 -34 1 -2 -5 -23 -5 -45 -1 -22 4 -43 4 -45 -1 -3 -4
-18 -4 -34 1 -16 4 -32 5 -36 2 -7 -8 -102 -5 -115 3 -6 3 -10 3 -10 -2 0 -4
-29 -8 -65 -8 -36 0 -65 3 -65 7 0 4 -13 3 -30 -2 -17 -5 -30 -5 -30 0 0 5
-13 5 -30 0 -17 -5 -30 -5 -30 0 0 5 -13 5 -29 0 -15 -4 -34 -4 -42 0 -7 5
-20 5 -29 0 -9 -5 -22 -5 -30 0 -8 5 -21 5 -30 0 -9 -5 -22 -5 -30 0 -8 5 -21
5 -31 0 -9 -5 -19 -7 -22 -4 -8 8 -106 9 -113 1 -3 -3 -19 -1 -35 3 -16 5 -31
5 -34 1 -2 -5 -23 -5 -45 -1 -22 4 -43 4 -45 -1 -3 -4 -18 -4 -34 1 -16 4 -32
5 -36 2 -7 -8 -102 -5 -115 3 -6 3 -10 2 -10 -4 0 -6 -11 -6 -30 -1 -17 5 -30
5 -30 0 0 -5 -13 -5 -30 0 -17 5 -30 5 -30 0 0 -5 -13 -5 -30 0 -17 5 -30 5
-30 0 0 -5 -13 -5 -30 0 -17 5 -30 5 -30 0 0 -5 -13 -5 -30 0 -17 5 -30 5 -30
0 0 -5 -13 -5 -30 0 -17 5 -30 5 -30 0 0 -5 -13 -5 -30 0 -17 5 -30 5 -30 0 0
-5 -13 -5 -30 0 -19 5 -30 5 -30 -1 0 -6 -4 -7 -10 -4 -13 8 -108 11 -115 3
-4 -3 -20 -2 -36 2 -16 5 -31 5 -34 1 -2 -5 -23 -5 -45 -1 -22 4 -43 4 -45 -1
-3 -4 -18 -4 -34 1 -16 4 -32 5 -36 2 -7 -7 -105 -5 -112 2 -3 3 -15 1 -27 -4
-13 -4 -29 -5 -36 0 -7 5 -23 5 -35 0 -12 -5 -28 -5 -35 0 -7 5 -24 4 -36 0
-13 -5 -26 -6 -28 -1 -3 5 -16 6 -29 4 l-23 -5 2 149 c0 81 2 150 2 153 1 3
610 5 1352 5 l1350 0 0 -151z"/>
</g>
</svg>
