<svg width="171" height="40" viewBox="0 0 171 40" fill="none" xmlns="http://www.w3.org/2000/svg">
    <path d="M36.957 11.0343L26.0672 0H5V40H19.5686H34.1372C34.2839 40 36.957 40 36.957 40C37.0538 39.5819 36.957 36.1905 36.957 36.1905V31.4286V27.1429V11.0343ZM12.5193 22.8571H26.618V24.7619H12.5193V22.8571ZM29.4377 30H12.5193V28.0952H29.4377V30ZM29.4377 19.5238H12.5193V17.619H29.4377V19.5238ZM26.0672 11.0343L26 2L35 11.0343H26.0672Z" fill="#020887"/>
    <path d="M53.52 20.272C54.3093 20.272 54.9973 20.176 55.584 19.984C56.1707 19.7813 56.656 19.4987 57.04 19.136C57.4347 18.7627 57.728 18.3147 57.92 17.792C58.112 17.2587 58.208 16.6667 58.208 16.016C58.208 15.3973 58.112 14.8373 57.92 14.336C57.728 13.8347 57.44 13.408 57.056 13.056C56.672 12.704 56.1867 12.4373 55.6 12.256C55.0133 12.064 54.32 11.968 53.52 11.968H50.304V20.272H53.52ZM53.52 8.64C55.0667 8.64 56.4053 8.82133 57.536 9.184C58.6667 9.54667 59.6 10.0533 60.336 10.704C61.072 11.3547 61.616 12.1333 61.968 13.04C62.3307 13.9467 62.512 14.9387 62.512 16.016C62.512 17.136 62.3253 18.1653 61.952 19.104C61.5787 20.032 61.0187 20.832 60.272 21.504C59.5253 22.176 58.5867 22.6987 57.456 23.072C56.336 23.4453 55.024 23.632 53.52 23.632H50.304V31.776H46V8.64H53.52Z" fill="black"/>
    <path d="M73.3605 24.768C72.2192 24.8213 71.2592 24.9227 70.4805 25.072C69.7018 25.2107 69.0778 25.392 68.6085 25.616C68.1392 25.84 67.8032 26.1013 67.6005 26.4C67.3978 26.6987 67.2965 27.024 67.2965 27.376C67.2965 28.0693 67.4992 28.5653 67.9045 28.864C68.3205 29.1627 68.8592 29.312 69.5205 29.312C70.3312 29.312 71.0298 29.168 71.6165 28.88C72.2138 28.5813 72.7952 28.1333 73.3605 27.536V24.768ZM64.3045 17.648C66.1925 15.92 68.4645 15.056 71.1205 15.056C72.0805 15.056 72.9392 15.216 73.6965 15.536C74.4538 15.8453 75.0938 16.2827 75.6165 16.848C76.1392 17.4027 76.5338 18.0693 76.8005 18.848C77.0778 19.6267 77.2165 20.48 77.2165 21.408V31.776H75.4245C75.0512 31.776 74.7632 31.7227 74.5605 31.616C74.3578 31.4987 74.1978 31.2693 74.0805 30.928L73.7285 29.744C73.3125 30.1173 72.9072 30.448 72.5125 30.736C72.1178 31.0133 71.7072 31.248 71.2805 31.44C70.8538 31.632 70.3952 31.776 69.9045 31.872C69.4245 31.9787 68.8912 32.032 68.3045 32.032C67.6112 32.032 66.9712 31.9413 66.3845 31.76C65.7978 31.568 65.2912 31.2853 64.8645 30.912C64.4378 30.5387 64.1072 30.0747 63.8725 29.52C63.6378 28.9653 63.5205 28.32 63.5205 27.584C63.5205 27.168 63.5898 26.7573 63.7285 26.352C63.8672 25.936 64.0912 25.5413 64.4005 25.168C64.7205 24.7947 65.1312 24.4427 65.6325 24.112C66.1338 23.7813 66.7472 23.4933 67.4725 23.248C68.2085 23.0027 69.0618 22.8053 70.0325 22.656C71.0032 22.496 72.1125 22.4 73.3605 22.368V21.408C73.3605 20.3093 73.1258 19.4987 72.6565 18.976C72.1872 18.4427 71.5098 18.176 70.6245 18.176C69.9845 18.176 69.4512 18.2507 69.0245 18.4C68.6085 18.5493 68.2405 18.72 67.9205 18.912C67.6005 19.0933 67.3072 19.2587 67.0405 19.408C66.7845 19.5573 66.4965 19.632 66.1765 19.632C65.8992 19.632 65.6645 19.5627 65.4725 19.424C65.2805 19.2747 65.1258 19.104 65.0085 18.912L64.3045 17.648Z" fill="black"/>
    <path d="M84.9385 8V31.776H80.9865V8H84.9385Z" fill="black"/>
    <path d="M92.828 27.52C93.276 28.064 93.7613 28.448 94.284 28.672C94.8173 28.896 95.3933 29.008 96.012 29.008C96.6093 29.008 97.148 28.896 97.628 28.672C98.108 28.448 98.5133 28.1067 98.844 27.648C99.1853 27.1893 99.4467 26.6133 99.628 25.92C99.8093 25.216 99.9 24.3893 99.9 23.44C99.9 22.48 99.82 21.6693 99.66 21.008C99.5107 20.336 99.292 19.792 99.004 19.376C98.716 18.96 98.364 18.656 97.948 18.464C97.5427 18.272 97.0787 18.176 96.556 18.176C95.7347 18.176 95.036 18.352 94.46 18.704C93.884 19.0453 93.34 19.5307 92.828 20.16V27.52ZM92.62 17.6C93.292 16.8427 94.0547 16.2293 94.908 15.76C95.7613 15.2907 96.764 15.056 97.916 15.056C98.812 15.056 99.628 15.2427 100.364 15.616C101.111 15.9893 101.751 16.5333 102.284 17.248C102.828 17.952 103.244 18.8267 103.532 19.872C103.831 20.9067 103.98 22.096 103.98 23.44C103.98 24.6667 103.815 25.8027 103.484 26.848C103.153 27.8933 102.679 28.8 102.06 29.568C101.452 30.336 100.711 30.9387 99.836 31.376C98.972 31.8027 98.0013 32.016 96.924 32.016C96.0067 32.016 95.2227 31.8773 94.572 31.6C93.9213 31.312 93.34 30.9173 92.828 30.416V37.136H88.876V15.36H91.292C91.804 15.36 92.14 15.6 92.3 16.08L92.62 17.6Z" fill="black"/>
    <path d="M115.736 24.768C114.594 24.8213 113.634 24.9227 112.855 25.072C112.077 25.2107 111.453 25.392 110.983 25.616C110.514 25.84 110.178 26.1013 109.976 26.4C109.773 26.6987 109.672 27.024 109.672 27.376C109.672 28.0693 109.874 28.5653 110.28 28.864C110.696 29.1627 111.234 29.312 111.896 29.312C112.706 29.312 113.405 29.168 113.992 28.88C114.589 28.5813 115.17 28.1333 115.736 27.536V24.768ZM106.68 17.648C108.568 15.92 110.84 15.056 113.495 15.056C114.455 15.056 115.314 15.216 116.072 15.536C116.829 15.8453 117.469 16.2827 117.992 16.848C118.514 17.4027 118.909 18.0693 119.175 18.848C119.453 19.6267 119.591 20.48 119.591 21.408V31.776H117.799C117.426 31.776 117.138 31.7227 116.936 31.616C116.733 31.4987 116.573 31.2693 116.455 30.928L116.104 29.744C115.688 30.1173 115.282 30.448 114.887 30.736C114.493 31.0133 114.082 31.248 113.656 31.44C113.229 31.632 112.77 31.776 112.28 31.872C111.799 31.9787 111.266 32.032 110.679 32.032C109.986 32.032 109.346 31.9413 108.759 31.76C108.173 31.568 107.666 31.2853 107.239 30.912C106.813 30.5387 106.482 30.0747 106.248 29.52C106.013 28.9653 105.896 28.32 105.896 27.584C105.896 27.168 105.965 26.7573 106.104 26.352C106.242 25.936 106.466 25.5413 106.776 25.168C107.096 24.7947 107.506 24.4427 108.007 24.112C108.509 23.7813 109.122 23.4933 109.847 23.248C110.583 23.0027 111.437 22.8053 112.408 22.656C113.378 22.496 114.488 22.4 115.736 22.368V21.408C115.736 20.3093 115.501 19.4987 115.032 18.976C114.562 18.4427 113.885 18.176 112.999 18.176C112.359 18.176 111.826 18.2507 111.399 18.4C110.983 18.5493 110.616 18.72 110.296 18.912C109.976 19.0933 109.682 19.2587 109.416 19.408C109.16 19.5573 108.871 19.632 108.551 19.632C108.274 19.632 108.04 19.5627 107.847 19.424C107.655 19.2747 107.501 19.104 107.383 18.912L106.68 17.648Z" fill="black"/>
    <path d="M127.266 27.52C127.714 28.064 128.199 28.448 128.721 28.672C129.255 28.896 129.831 29.008 130.45 29.008C131.047 29.008 131.585 28.896 132.065 28.672C132.546 28.448 132.951 28.1067 133.282 27.648C133.623 27.1893 133.884 26.6133 134.065 25.92C134.247 25.216 134.338 24.3893 134.338 23.44C134.338 22.48 134.258 21.6693 134.098 21.008C133.948 20.336 133.729 19.792 133.441 19.376C133.153 18.96 132.801 18.656 132.385 18.464C131.98 18.272 131.516 18.176 130.993 18.176C130.172 18.176 129.473 18.352 128.897 18.704C128.322 19.0453 127.778 19.5307 127.266 20.16V27.52ZM127.058 17.6C127.729 16.8427 128.492 16.2293 129.345 15.76C130.199 15.2907 131.201 15.056 132.354 15.056C133.249 15.056 134.065 15.2427 134.801 15.616C135.548 15.9893 136.188 16.5333 136.721 17.248C137.265 17.952 137.681 18.8267 137.969 19.872C138.268 20.9067 138.418 22.096 138.418 23.44C138.418 24.6667 138.252 25.8027 137.922 26.848C137.591 27.8933 137.116 28.8 136.497 29.568C135.889 30.336 135.148 30.9387 134.273 31.376C133.41 31.8027 132.439 32.016 131.361 32.016C130.444 32.016 129.66 31.8773 129.009 31.6C128.359 31.312 127.778 30.9173 127.266 30.416V37.136H123.313V15.36H125.729C126.242 15.36 126.577 15.6 126.738 16.08L127.058 17.6Z" fill="black"/>
    <path d="M152.077 21.68C152.077 21.168 152.002 20.688 151.853 20.24C151.714 19.7813 151.501 19.3813 151.213 19.04C150.925 18.6987 150.557 18.432 150.109 18.24C149.672 18.0373 149.16 17.936 148.573 17.936C147.432 17.936 146.53 18.2613 145.869 18.912C145.218 19.5627 144.802 20.4853 144.621 21.68H152.077ZM144.541 24.064C144.605 24.9067 144.754 25.6373 144.989 26.256C145.224 26.864 145.533 27.3707 145.917 27.776C146.301 28.1707 146.754 28.4693 147.277 28.672C147.81 28.864 148.397 28.96 149.037 28.96C149.677 28.96 150.226 28.8853 150.685 28.736C151.154 28.5867 151.56 28.4213 151.901 28.24C152.253 28.0587 152.557 27.8933 152.813 27.744C153.08 27.5947 153.336 27.52 153.581 27.52C153.912 27.52 154.157 27.6427 154.317 27.888L155.453 29.328C155.016 29.84 154.525 30.272 153.981 30.624C153.437 30.9653 152.866 31.2427 152.269 31.456C151.682 31.6587 151.08 31.8027 150.461 31.888C149.853 31.9733 149.261 32.016 148.685 32.016C147.544 32.016 146.482 31.8293 145.501 31.456C144.52 31.072 143.666 30.512 142.941 29.776C142.216 29.0293 141.645 28.112 141.229 27.024C140.813 25.9253 140.605 24.656 140.605 23.216C140.605 22.096 140.786 21.0453 141.149 20.064C141.512 19.072 142.029 18.2133 142.701 17.488C143.384 16.752 144.21 16.1707 145.181 15.744C146.162 15.3173 147.266 15.104 148.493 15.104C149.528 15.104 150.482 15.2693 151.357 15.6C152.232 15.9307 152.984 16.416 153.613 17.056C154.242 17.6853 154.733 18.464 155.085 19.392C155.448 20.3093 155.629 21.36 155.629 22.544C155.629 23.1413 155.565 23.5467 155.437 23.76C155.309 23.9627 155.064 24.064 154.701 24.064H144.541Z" fill="black"/>
    <path d="M162.595 8V31.776H158.643V8H162.595Z" fill="black"/>
</svg>
